<?xml version="1.0" encoding="UTF-8"?>
<svg width="142px" height="34px" viewBox="0 0 142 34" version="1.1" xmlns="http://www.w3.org/2000/svg" xmlns:xlink="http://www.w3.org/1999/xlink">
    <!-- Generator: Sketch 42 (36781) - http://www.bohemiancoding.com/sketch -->
    <title>Artboard</title>
    <desc>Created with Sketch.</desc>
    <defs></defs>
    <g id="Page-1" stroke="none" stroke-width="1" fill="none" fill-rule="evenodd">
        <g id="Artboard" fill="#272829">
            <path d="M5.13,25.83 C5.1900003,26.7000044 5.5499967,27.4799966 6.21,28.17 C6.8700033,28.8600035 7.8599934,29.205 9.18,29.205 C10.170005,29.205 10.9049976,28.9875022 11.385,28.5525 C11.8650024,28.1174978 12.105,27.600003 12.105,27 C12.105,26.4899975 11.9250018,26.0475019 11.565,25.6725 C11.2049982,25.2974981 10.5900044,25.0200009 9.72,24.84 L6.795,24.165 C4.6349892,23.6849976 3.06000495,22.8525059 2.07,21.6675 C1.07999505,20.4824941 0.585,19.1100078 0.585,17.55 C0.585,16.559995 0.7949979,15.6225044 1.215,14.7375 C1.6350021,13.8524956 2.21249633,13.0875032 2.9475,12.4425 C3.68250368,11.7974968 4.55249498,11.2800019 5.5575,10.89 C6.56250503,10.499998 7.664994,10.305 8.865,10.305 C10.4250078,10.305 11.7449946,10.5224978 12.825,10.9575 C13.9050054,11.3925022 14.7824966,11.9399967 15.4575,12.6 C16.1325034,13.2600033 16.6349984,13.9574963 16.965,14.6925 C17.2950017,15.4275037 17.4899997,16.094997 17.55,16.695 L12.555,17.82 C12.4949997,17.4899984 12.3975007,17.1525017 12.2625,16.8075 C12.1274993,16.4624983 11.9100015,16.1400015 11.61,15.84 C11.3099985,15.5399985 10.9425022,15.3000009 10.5075,15.12 C10.0724978,14.9399991 9.54000315,14.85 8.91,14.85 C8.1299961,14.85 7.46250278,15.0599979 6.9075,15.48 C6.35249723,15.9000021 6.075,16.4249969 6.075,17.055 C6.075,17.5950027 6.26249813,18.0299984 6.6375,18.36 C7.01250187,18.6900016 7.499997,18.9149994 8.1,19.035 L11.25,19.71 C13.440011,20.1600022 15.0824945,20.9999939 16.1775,22.23 C17.2725055,23.4600062 17.82,24.8849919 17.82,26.505 C17.82,27.4050045 17.6475017,28.2899956 17.3025,29.16 C16.9574983,30.0300044 16.4250036,30.8099965 15.705,31.5 C14.9849964,32.1900035 14.0850054,32.7449979 13.005,33.165 C11.9249946,33.5850021 10.6650072,33.795 9.225,33.795 C7.5449916,33.795 6.1350057,33.5550024 4.995,33.075 C3.8549943,32.5949976 2.9250036,32.0100034 2.205,31.32 C1.4849964,30.6299965 0.952501725,29.887504 0.6075,29.0925 C0.262498275,28.297496 0.0600003,27.5850032 0,26.955 L5.13,25.83 Z M19.635,33.12 L19.635,10.98 L25.35,10.98 L25.35,13.68 C25.6500015,13.1399973 26.0399976,12.6600021 26.52,12.24 C27.0000024,11.8199979 27.5324971,11.4750014 28.1175,11.205 C28.7025029,10.9349987 29.3174968,10.7250007 29.9625,10.575 C30.6075032,10.4249992 31.229997,10.35 31.83,10.35 C33.3600077,10.35 34.6949943,10.6649969 35.835,11.295 C36.9750057,11.9250032 37.8299972,12.839994 38.4,14.04 C39.2700044,12.6899932 40.2899942,11.7375028 41.46,11.1825 C42.6300059,10.6274972 43.9499927,10.35 45.42,10.35 C46.4400051,10.35 47.4299952,10.5074984 48.39,10.8225 C49.3500048,11.1375016 50.2049963,11.6399965 50.955,12.33 C51.7050038,13.0200034 52.3049978,13.8974947 52.755,14.9625 C53.2050023,16.0275053 53.43,17.2949926 53.43,18.765 L53.43,33.12 L47.625,33.12 L47.625,19.98 C47.625,18.779994 47.3175031,17.782504 46.7025,16.9875 C46.0874969,16.192496 45.0900069,15.795 43.71,15.795 C42.4199936,15.795 41.4150036,16.2224957 40.695,17.0775 C39.9749964,17.9325043 39.615,18.959994 39.615,20.16 L39.615,33.12 L33.675,33.12 L33.675,19.98 C33.675,18.779994 33.3600032,17.782504 32.73,16.9875 C32.0999969,16.192496 31.1100068,15.795 29.76,15.795 C28.4399934,15.795 27.4200036,16.2149958 26.7,17.055 C25.9799964,17.8950042 25.62,18.9299939 25.62,20.16 L25.62,33.12 L19.635,33.12 Z M66.45,15.84 C65.6699961,15.84 64.9425034,15.9749986 64.2675,16.245 C63.5924966,16.5150014 63.0000026,16.9124974 62.49,17.4375 C61.9799975,17.9625026 61.5750015,18.6149961 61.275,19.395 C60.9749985,20.1750039 60.825,21.059995 60.825,22.05 C60.825,23.040005 60.9749985,23.9249961 61.275,24.705 C61.5750015,25.4850039 61.9874974,26.1449973 62.5125,26.685 C63.0375026,27.2250027 63.6374966,27.6299987 64.3125,27.9 C64.9875034,28.1700014 65.7149961,28.305 66.495,28.305 C67.2450038,28.305 67.9124971,28.1925011 68.4975,27.9675 C69.0825029,27.7424989 69.5849979,27.4500018 70.005,27.09 C70.4250021,26.7299982 70.7624987,26.3250023 71.0175,25.875 C71.2725013,25.4249977 71.4599994,24.9900021 71.58,24.57 L76.845,26.325 C76.6049988,27.2550046 76.2075028,28.1624956 75.6525,29.0475 C75.0974972,29.9325044 74.3850044,30.7274965 73.515,31.4325 C72.6449957,32.1375035 71.6250059,32.7074978 70.455,33.1425 C69.2849941,33.5775022 67.9650074,33.795 66.495,33.795 C64.8749919,33.795 63.3525071,33.5025029 61.9275,32.9175 C60.5024929,32.3324971 59.2650053,31.5150053 58.215,30.465 C57.1649948,29.4149948 56.340003,28.1775071 55.74,26.7525 C55.139997,25.3274929 54.84,23.7600086 54.84,22.05 C54.84,20.3399915 55.1324971,18.7650072 55.7175,17.325 C56.3025029,15.8849928 57.1124948,14.6475052 58.1475,13.6125 C59.1825052,12.5774948 60.397493,11.7675029 61.7925,11.1825 C63.187507,10.5974971 64.6949919,10.305 66.315,10.305 C67.8150075,10.305 69.1574941,10.5224978 70.3425,10.9575 C71.5275059,11.3925022 72.5549957,11.9549966 73.425,12.645 C74.2950043,13.3350034 74.9999973,14.1299955 75.54,15.03 C76.0800027,15.9300045 76.4699988,16.8449953 76.71,17.775 L71.355,19.575 C71.0849987,18.6449953 70.5675038,17.7900039 69.8025,17.01 C69.0374962,16.2299961 67.9200073,15.84 66.45,15.84 Z M90.855,20.295 L99.9,33.12 L92.565,33.12 L86.715,24.66 L84.24,27.27 L84.24,33.12 L78.255,33.12 L78.255,0.54 L84.24,0.54 L84.24,19.215 L91.89,10.98 L99.72,10.98 L90.855,20.295 Z M99.825,29.34 C99.825,28.1999943 100.222496,27.232504 101.0175,26.4375 C101.812504,25.642496 102.779994,25.245 103.92,25.245 C104.490003,25.245 105.029997,25.3499989 105.54,25.56 C106.050003,25.7700011 106.492498,26.0624981 106.8675,26.4375 C107.242502,26.8125019 107.534999,27.2474975 107.745,27.7425 C107.955001,28.2375025 108.06,28.7699971 108.06,29.34 C108.06,29.9100029 107.955001,30.4424975 107.745,30.9375 C107.534999,31.4325025 107.242502,31.8674981 106.8675,32.2425 C106.492498,32.6175019 106.050003,32.9099989 105.54,33.12 C105.029997,33.3300011 104.490003,33.435 103.92,33.435 C102.779994,33.435 101.812504,33.037504 101.0175,32.2425 C100.222496,31.447496 99.825,30.4800057 99.825,29.34 Z M111.135,33.12 L111.135,10.98 L117.12,10.98 L117.12,33.12 L111.135,33.12 Z M110.415,3.735 C110.415,2.68499475 110.774996,1.8000036 111.495,1.08 C112.215004,0.3599964 113.084995,0 114.105,0 C115.155005,0 116.032496,0.3599964 116.7375,1.08 C117.442504,1.8000036 117.795,2.68499475 117.795,3.735 C117.795,4.72500495 117.442504,5.5799964 116.7375,6.3 C116.032496,7.0200036 115.155005,7.38 114.105,7.38 C113.084995,7.38 112.215004,7.0200036 111.495,6.3 C110.774996,5.5799964 110.415,4.72500495 110.415,3.735 Z M130.455,28.35 C131.175004,28.35 131.879997,28.2150014 132.57,27.945 C133.260003,27.6749987 133.859997,27.2775026 134.37,26.7525 C134.880003,26.2274974 135.292498,25.5750039 135.6075,24.795 C135.922502,24.0149961 136.08,23.1000052 136.08,22.05 C136.08,20.9999947 135.922502,20.0850039 135.6075,19.305 C135.292498,18.5249961 134.880003,17.8725026 134.37,17.3475 C133.859997,16.8224974 133.260003,16.4250013 132.57,16.155 C131.879997,15.8849986 131.175004,15.75 130.455,15.75 C129.734996,15.75 129.030003,15.8849986 128.34,16.155 C127.649997,16.4250013 127.050003,16.8224974 126.54,17.3475 C126.029997,17.8725026 125.617502,18.5249961 125.3025,19.305 C124.987498,20.0850039 124.83,20.9999947 124.83,22.05 C124.83,23.1000052 124.987498,24.0149961 125.3025,24.795 C125.617502,25.5750039 126.029997,26.2274974 126.54,26.7525 C127.050003,27.2775026 127.649997,27.6749987 128.34,27.945 C129.030003,28.2150014 129.734996,28.35 130.455,28.35 Z M130.455,10.305 C132.105008,10.305 133.642493,10.5974971 135.0675,11.1825 C136.492507,11.7675029 137.722495,12.5774948 138.7575,13.6125 C139.792505,14.6475052 140.602497,15.8849928 141.1875,17.325 C141.772503,18.7650072 142.065,20.3399915 142.065,22.05 C142.065,23.7600086 141.772503,25.3274929 141.1875,26.7525 C140.602497,28.1775071 139.792505,29.4149948 138.7575,30.465 C137.722495,31.5150053 136.492507,32.3324971 135.0675,32.9175 C133.642493,33.5025029 132.105008,33.795 130.455,33.795 C128.804992,33.795 127.267507,33.5025029 125.8425,32.9175 C124.417493,32.3324971 123.187505,31.5150053 122.1525,30.465 C121.117495,29.4149948 120.307503,28.1775071 119.7225,26.7525 C119.137497,25.3274929 118.845,23.7600086 118.845,22.05 C118.845,20.3399915 119.137497,18.7650072 119.7225,17.325 C120.307503,15.8849928 121.117495,14.6475052 122.1525,13.6125 C123.187505,12.5774948 124.417493,11.7675029 125.8425,11.1825 C127.267507,10.5974971 128.804992,10.305 130.455,10.305 Z" id="smck.io"></path>
        </g>
    </g>
</svg>