<?xml version="1.0" encoding="UTF-8"?>
<svg width="17px" height="124px" viewBox="0 0 17 124" version="1.1" xmlns="http://www.w3.org/2000/svg" xmlns:xlink="http://www.w3.org/1999/xlink">
    <!-- Generator: Sketch 42 (36781) - http://www.bohemiancoding.com/sketch -->
    <title>Product Designer. Copy</title>
    <desc>Created with Sketch.</desc>
    <defs></defs>
    <g id="Page-1" stroke="none" stroke-width="1" fill="none" fill-rule="evenodd">
        <g id="Desktop-HD-Copy-9" transform="translate(-12.000000, -18.000000)" fill="#1C1C1C">
            <path d="M-41.623,84 L-41.623,72.678 L-37.9,72.678 C-35.435,72.678 -33.565,73.817 -33.565,76.248 C-33.565,78.713 -35.35,79.971 -38.172,79.971 L-39.209,79.971 L-39.209,84 L-41.623,84 Z M-39.209,78.152 L-38.138,78.152 C-36.625,78.152 -35.979,77.54 -35.979,76.282 C-35.979,75.143 -36.608,74.514 -38.087,74.514 L-39.209,74.514 L-39.209,78.152 Z M-32.535,84 L-32.535,75.721 L-30.274,75.721 L-30.274,76.843 C-29.917,76.231 -29.237,75.517 -28.183,75.517 C-27.571,75.517 -27.248,75.636 -27.061,75.738 L-27.605,77.71 C-27.741,77.625 -27.996,77.523 -28.472,77.523 C-29.475,77.523 -30.07,78.407 -30.274,78.781 L-30.274,84 L-32.535,84 Z M-22.954,84.204 C-25.844,84.204 -27.102,82.011 -27.102,79.886 C-27.102,77.761 -25.861,75.517 -22.971,75.517 C-20.081,75.517 -18.772,77.693 -18.772,79.818 C-18.772,81.909 -20.047,84.204 -22.954,84.204 Z M-22.92,82.487 C-21.628,82.487 -21.169,81.433 -21.169,79.886 C-21.169,78.339 -21.713,77.2 -23.005,77.2 C-24.28,77.2 -24.705,78.271 -24.705,79.818 C-24.705,81.365 -24.195,82.487 -22.92,82.487 Z M-14.835,84.221 C-16.909,84.221 -18.235,82.657 -18.235,79.886 C-18.235,77.234 -16.654,75.517 -14.529,75.517 C-13.645,75.517 -12.999,75.772 -12.608,76.095 L-12.608,71.76 L-10.347,71.76 L-10.347,81.637 C-10.347,82.64 -10.228,83.456 -10.109,84 L-12.336,84 C-12.404,83.796 -12.489,83.354 -12.506,83.099 C-13.067,83.779 -13.798,84.221 -14.835,84.221 Z M-14.155,82.402 C-13.492,82.402 -12.931,81.994 -12.608,81.569 L-12.608,77.829 C-12.965,77.506 -13.407,77.285 -14.053,77.285 C-15.209,77.285 -15.838,78.254 -15.838,79.886 C-15.838,81.467 -15.311,82.402 -14.155,82.402 Z M-6.274,84.204 C-4.897,84.204 -4.047,83.456 -3.605,82.895 C-3.588,83.235 -3.503,83.779 -3.435,84 L-1.208,84 C-1.31,83.507 -1.429,82.674 -1.429,81.62 L-1.429,75.721 L-3.69,75.721 L-3.69,81.28 C-3.86,81.484 -4.523,82.317 -5.39,82.317 C-6.206,82.317 -6.495,81.892 -6.495,81.059 L-6.495,75.721 L-8.756,75.721 L-8.756,81.518 C-8.756,83.031 -8.093,84.204 -6.274,84.204 Z M3.97,84.204 C5.483,84.204 6.248,83.711 6.639,83.456 L5.942,81.943 C5.687,82.096 5.109,82.453 4.157,82.453 C2.746,82.453 2.083,81.331 2.083,79.801 C2.083,78.271 2.78,77.234 4.106,77.234 C4.939,77.234 5.466,77.489 5.84,77.727 L6.571,76.18 C6.18,75.925 5.381,75.517 4.038,75.517 C1.539,75.517 -0.314,77.081 -0.314,79.869 C-0.314,82.436 1.318,84.204 3.97,84.204 Z M10.814,84.204 C11.851,84.204 12.548,83.915 12.888,83.728 L12.361,82.045 C12.191,82.147 11.766,82.351 11.273,82.351 C10.644,82.351 10.44,81.994 10.44,81.178 L10.44,77.404 L12.378,77.404 L12.378,75.721 L10.44,75.721 L10.44,73.324 L8.196,73.324 L8.196,75.721 L6.87,75.721 L6.87,77.404 L8.196,77.404 L8.196,81.62 C8.196,83.201 8.859,84.204 10.814,84.204 Z M16.835,84 L16.835,72.678 L20.252,72.678 C24.706,72.678 26.729,74.922 26.729,78.186 C26.729,81.45 24.672,84 20.167,84 L16.835,84 Z M19.232,82.079 L20.354,82.079 C22.904,82.079 24.196,80.77 24.196,78.254 C24.196,75.721 22.955,74.599 20.269,74.599 L19.232,74.599 L19.232,82.079 Z M31.771,84.204 C29,84.204 27.436,82.453 27.436,79.818 C27.436,77.2 29.238,75.517 31.533,75.517 C33.879,75.517 35.137,77.013 35.137,79.597 C35.137,79.852 35.12,80.107 35.103,80.379 L29.867,80.379 C29.969,81.603 30.598,82.521 31.975,82.521 C33.097,82.521 33.726,82.147 34.134,81.943 L34.865,83.405 C34.321,83.711 33.471,84.204 31.771,84.204 Z M29.833,78.849 L32.927,78.849 C32.91,77.914 32.536,77.149 31.499,77.149 C30.53,77.149 30.003,77.778 29.833,78.849 Z M38.632,84.204 C40.672,84.204 41.913,83.286 41.913,81.552 C41.913,80.158 40.961,79.563 39.652,79.019 C38.7,78.645 37.952,78.492 37.952,77.931 C37.952,77.489 38.292,77.2 39.091,77.2 C39.89,77.2 40.536,77.523 40.859,77.727 L41.658,76.18 C41.284,75.959 40.417,75.517 39.006,75.517 C37.136,75.517 35.912,76.503 35.912,78.05 C35.912,79.308 36.609,79.954 37.765,80.498 C38.938,81.059 39.856,81.212 39.856,81.773 C39.856,82.266 39.363,82.521 38.496,82.521 C37.578,82.521 36.779,82.062 36.456,81.841 L35.691,83.422 C36.201,83.762 37.153,84.204 38.632,84.204 Z M44.269,74.65 C45.068,74.65 45.663,74.021 45.663,73.29 C45.663,72.576 45.068,71.964 44.269,71.964 C43.47,71.964 42.892,72.576 42.892,73.29 C42.892,74.021 43.47,74.65 44.269,74.65 Z M43.13,84 L45.408,84 L45.408,75.721 L43.13,75.721 L43.13,84 Z M50.212,88.063 C47.934,88.063 46.574,87.349 46.574,85.853 C46.574,84.935 47.152,84.272 47.968,83.83 C47.509,83.558 47.237,83.167 47.237,82.572 C47.237,81.807 47.662,81.314 48.155,81.008 C47.22,80.498 46.693,79.614 46.693,78.526 C46.693,76.741 48.07,75.517 50.365,75.517 C50.909,75.517 51.419,75.585 51.844,75.721 L54.853,75.721 L54.853,77.2 L53.714,77.2 C53.935,77.591 54.054,78.05 54.054,78.526 C54.054,80.294 52.796,81.518 50.484,81.518 C50.144,81.518 49.804,81.501 49.498,81.45 C49.294,81.569 49.192,81.722 49.192,81.926 C49.192,82.368 49.668,82.453 50.858,82.521 C52.575,82.606 54.751,82.623 54.751,85.071 C54.751,86.822 52.932,88.063 50.212,88.063 Z M50.348,86.55 C51.725,86.55 52.507,86.023 52.507,85.326 C52.507,84.442 51.725,84.476 50.518,84.391 C50.127,84.357 49.736,84.34 49.379,84.272 C48.954,84.578 48.733,84.935 48.733,85.428 C48.733,86.091 49.192,86.55 50.348,86.55 Z M50.382,80.056 C51.317,80.056 51.878,79.478 51.878,78.526 C51.878,77.557 51.317,76.996 50.382,76.996 C49.447,76.996 48.886,77.557 48.886,78.526 C48.886,79.478 49.447,80.056 50.382,80.056 Z M55.815,84 L58.076,84 L58.076,78.441 C58.416,77.982 59.045,77.404 59.776,77.404 C60.592,77.404 60.881,77.829 60.881,78.662 L60.881,84 L63.142,84 L63.142,78.203 C63.142,76.673 62.462,75.517 60.66,75.517 C59.47,75.517 58.62,76.061 58.025,76.758 L58.025,75.721 L55.815,75.721 L55.815,84 Z M68.524,84.204 C65.753,84.204 64.189,82.453 64.189,79.818 C64.189,77.2 65.991,75.517 68.286,75.517 C70.632,75.517 71.89,77.013 71.89,79.597 C71.89,79.852 71.873,80.107 71.856,80.379 L66.62,80.379 C66.722,81.603 67.351,82.521 68.728,82.521 C69.85,82.521 70.479,82.147 70.887,81.943 L71.618,83.405 C71.074,83.711 70.224,84.204 68.524,84.204 Z M66.586,78.849 L69.68,78.849 C69.663,77.914 69.289,77.149 68.252,77.149 C67.283,77.149 66.756,77.778 66.586,78.849 Z M73.107,84 L75.368,84 L75.368,78.781 C75.572,78.407 76.167,77.523 77.17,77.523 C77.646,77.523 77.901,77.625 78.037,77.71 L78.581,75.738 C78.394,75.636 78.071,75.517 77.459,75.517 C76.405,75.517 75.725,76.231 75.368,76.843 L75.368,75.721 L73.107,75.721 L73.107,84 Z M80.546,84.17 C81.379,84.17 82.042,83.524 82.042,82.708 C82.042,81.892 81.379,81.263 80.546,81.263 C79.713,81.263 79.033,81.892 79.033,82.708 C79.033,83.524 79.713,84.17 80.546,84.17 Z" id="Product-Designer.-Copy" transform="translate(20.209500, 79.911500) rotate(-90.000000) translate(-20.209500, -79.911500) "></path>
        </g>
    </g>
</svg>